<svg xmlns="http://www.w3.org/2000/svg">
    <defs>
        <symbol id="Css" viewBox="0 0 48 48">
            <linearGradient id="TQDriqswrKwPOniLrPT12a" x1="16.33" x2="32.293" y1="-2.748" y2="41.109" gradientUnits="userSpaceOnUse">
                <stop offset="0" stop-color="#2aa4f4"/>
                <stop offset="1" stop-color="#007ad9"/>
            </linearGradient>
            <path fill="url(#TQDriqswrKwPOniLrPT12a)" d="m7.192 7.176 2.627 29.77a3 3 0 0 0 2.164 2.621l10.643 3.041a5 5 0 0 0 2.747 0l10.643-3.041a3 3 0 0 0 2.164-2.621l2.627-29.77A2 2 0 0 0 38.816 5H9.184a2 2 0 0 0-1.992 2.176"/>
            <path fill="#35c1f1" d="M24 8v31.9l9.876-2.822a2 2 0 0 0 1.443-1.749l2.286-26.242A1 1 0 0 0 36.609 8z"/>
            <path fill="#fff" d="M33.1 13H24v4h4.9l-.3 4H24v4h4.4l-.3 4.5-4.1 1.4v4.2l7.9-2.6.7-11.5z"/>
            <path fill="#d6e0e9" d="M24 13v4h-8.9l-.3-4zm-4.6 8 .2 4H24v-4zm.4 6h-4l.3 5.5 7.9 2.6v-4.2l-4.1-1.4z"/>
            <path d="m33.1 13-.5 8-.7 11.5-7.9 2.6-7.9-2.6-.3-5.5h4l.1 2.5 4.1 1.4 4.1-1.4.3-4.5h-8.8l-.2-4h9.2l.3-4H15.1l-.3-4zm1.064-1H13.722l.081 1.075.3 4 .069.925h13.65l-.15 2h-9.323l.052 1.05.2 4 .048.95h-3.905l.058 1.054.3 5.5.037.682.649.214 7.9 2.6.312.103.313-.103 7.9-2.6.644-.212.041-.677.7-11.5.5-7.998zM20.761 26h6.57l-.185 2.769L24 29.843l-3.128-1.068-.073-1.815z" opacity=".05"/>
            <path d="m33.1 13-.5 8-.7 11.5-7.9 2.6-7.9-2.6-.3-5.5h4l.1 2.5 4.1 1.4 4.1-1.4.3-4.5h-8.8l-.2-4h9.2l.3-4H15.1l-.3-4zm.532-.5H14.261l.04.537.3 4 .035.463h13.725l-.225 3h-9.262l.026.525.2 4 .024.475h8.742l-.242 3.634L24 30.372l-3.614-1.234-.086-2.158-.02-.48h-5.008l.029.527.3 5.5.019.341.324.107 7.9 2.6.156.051.156-.051 7.9-2.6.322-.106.021-.339.7-11.5.5-7.999z" opacity=".07"/>
        </symbol>
        <symbol id="React" viewBox="0 0 80 80">
            <path fill="#8bb7f0" d="M46.5 40c0 3.593-2.907 6.5-6.5 6.5s-6.5-2.907-6.5-6.5 2.907-6.5 6.5-6.5 6.5 2.907 6.5 6.5"/>
            <path fill="#4e7ab5" d="M40 47c-3.859 0-7-3.14-7-7s3.141-7 7-7 7 3.14 7 7-3.141 7-7 7m0-13c-3.309 0-6 2.691-6 6s2.691 6 6 6 6-2.691 6-6-2.691-6-6-6"/>
            <path fill="#8bb7f0" d="M24.474 75.503c-1.711 0-3.269-.392-4.632-1.164-2.28-1.293-3.856-3.521-4.686-6.62-.965-3.607-.85-8.398.332-13.878C5.956 50.562.5 45.531.5 40c0-5.532 5.455-10.562 14.987-13.84-1.182-5.481-1.298-10.272-.333-13.879.83-3.1 2.406-5.328 4.685-6.62 1.362-.772 2.921-1.164 4.632-1.164 4.388 0 9.891 2.73 15.531 7.698 5.64-4.963 11.141-7.691 15.524-7.691 1.711 0 3.269.392 4.632 1.164 2.277 1.291 3.854 3.515 4.684 6.611.966 3.606.85 8.398-.333 13.88C74.043 29.437 79.5 34.468 79.5 40s-5.457 10.563-14.991 13.842c1.182 5.481 1.298 10.272.332 13.878-.83 3.097-2.405 5.321-4.68 6.612-1.364.772-2.923 1.164-4.633 1.164-4.386 0-9.889-2.728-15.527-7.689-5.64 4.967-11.142 7.696-15.527 7.696m-5.137-20.497c-.991 4.717-1.102 8.747-.316 11.679.542 2.026 1.481 3.431 2.794 4.175.753.427 1.648.644 2.659.644 3.394 0 7.862-2.282 12.621-6.437-2.385-2.402-4.713-5.121-6.928-8.091-3.831-.416-7.471-1.078-10.83-1.97m23.569 10.059c4.758 4.151 9.227 6.431 12.621 6.432 1.011 0 1.906-.217 2.661-.644 1.309-.742 2.246-2.144 2.787-4.167.786-2.934.676-6.963-.315-11.679-3.362.892-7.003 1.554-10.833 1.97-2.214 2.97-4.539 5.688-6.921 8.088m-7.34-7.672A69 69 0 0 0 40 62.333a69 69 0 0 0 4.43-4.94A93 93 0 0 1 40 57.5a94 94 0 0 1-4.434-.107m-3.217-4.214A90 90 0 0 0 40 53.5c2.585 0 5.155-.108 7.646-.32a89 89 0 0 0 4.214-6.495 87 87 0 0 0 3.547-6.686 87 87 0 0 0-3.546-6.684 89 89 0 0 0-4.215-6.495A91 91 0 0 0 40 26.5c-2.588 0-5.159.108-7.647.321a86.6 86.6 0 0 0-7.765 13.181 87 87 0 0 0 7.761 13.177m25.142-8.4a92 92 0 0 1-4.571 7.77 65 65 0 0 0 6.771-1.4 68 68 0 0 0-2.2-6.37m-37.187 6.369a66 66 0 0 0 6.768 1.4 93 93 0 0 1-2.386-3.835 92 92 0 0 1-2.183-3.931 69 69 0 0 0-2.199 6.366M59.816 40c1.528 3.391 2.773 6.743 3.708 9.977C70.926 47.373 75.5 43.574 75.5 40s-4.574-7.373-11.976-9.977c-.933 3.234-2.179 6.586-3.708 9.977m-43.344-9.975C9.073 32.628 4.5 36.427 4.5 40c0 3.574 4.573 7.373 11.974 9.976.934-3.235 2.179-6.587 3.705-9.974-1.527-3.388-2.772-6.74-3.707-9.977m3.831-1.173a69 69 0 0 0 2.2 6.368 91 91 0 0 1 4.572-7.768 65 65 0 0 0-6.772 1.4m32.619-1.401a92 92 0 0 1 4.571 7.769 69 69 0 0 0 2.201-6.369 65 65 0 0 0-6.772-1.4M24.471 8.497c-1.011 0-1.905.216-2.657.644-1.312.744-2.252 2.149-2.795 4.175-.785 2.935-.675 6.964.317 11.679 3.36-.892 7.002-1.555 10.834-1.971 2.217-2.971 4.545-5.688 6.927-8.088-4.76-4.157-9.231-6.439-12.626-6.439m25.357 14.526c3.83.416 7.471 1.078 10.833 1.97.992-4.716 1.103-8.746.316-11.68-.542-2.022-1.48-3.424-2.79-4.166-.754-.427-1.649-.644-2.661-.644-3.393 0-7.86 2.281-12.619 6.433 2.38 2.399 4.706 5.117 6.921 8.087M40 22.5c1.454 0 2.939.036 4.431.107a70 70 0 0 0-4.429-4.938 70 70 0 0 0-4.432 4.938A93 93 0 0 1 40 22.5"/>
            <path fill="#4e7ab5" d="M24.471 4.997c4.494 0 9.996 2.91 15.532 7.867 5.535-4.953 11.034-7.86 15.524-7.86 1.623 0 3.099.37 4.386 1.099 2.156 1.222 3.652 3.343 4.446 6.306 1.077 3.917.851 8.74-.434 14.08C73.147 29.57 79 34.431 79 40s-5.853 10.43-15.076 13.512c1.341 5.773 1.566 10.726.434 14.079-.794 2.962-2.289 5.084-4.443 6.306-1.289.73-2.46 1.103-4.082 1.103h-.417c-4.492 0-9.882-2.91-15.416-7.861-5.535 4.956-11.035 7.864-15.527 7.864-1.623 0-3.099-.37-4.386-1.099-2.158-1.225-3.655-3.349-4.448-6.314-1.19-3.717-.95-8.603.434-14.079C6.852 50.429 1 45.569 1 40s5.852-10.429 15.072-13.511c-.687-3.059-1.126-5.899-1.141-8.489a21.3 21.3 0 0 1 .707-5.59c.794-2.966 2.29-5.09 4.448-6.314 1.286-.73 2.762-1.099 4.385-1.099m-5.513 20.617c3.477-.955 7.338-1.677 11.483-2.117 2.382-3.21 4.875-6.096 7.386-8.584-4.872-4.346-9.616-6.917-13.356-6.917-1.099 0-2.075.238-2.904.709-1.433.813-2.452 2.32-3.031 4.481-.858 3.202-.663 7.53.422 12.428m42.081-.001c1.085-4.898 1.28-9.227.422-12.429-.578-2.157-1.597-3.661-3.027-4.472-.83-.471-1.809-.709-2.907-.709-3.737 0-8.478 2.568-13.349 6.91 2.51 2.488 5 5.374 7.38 8.583 4.143.44 8.004 1.162 11.481 2.117m-26.562-2.447c1.802-.107 3.609-.2 5.488-.2s3.755.094 5.557.2a70 70 0 0 0-5.521-6.204 71 71 0 0 0-5.524 6.204M40 54c2.761 0 5.404-.121 7.918-.342a88 88 0 0 0 4.372-6.719A87 87 0 0 0 55.96 40a87 87 0 0 0-3.669-6.937 88 88 0 0 0-4.373-6.719C45.405 26.121 42.762 26 40 26s-5.406.121-7.92.343a87 87 0 0 0-8.045 13.658 87 87 0 0 0 3.668 6.937 88 88 0 0 0 4.374 6.719c2.515.222 5.16.343 7.923.343m17.546-17.587c1.125-2.709 2.056-5.369 2.766-7.913-2.553-.702-5.373-1.282-8.428-1.707a92 92 0 0 1 5.662 9.62m-35.097.001a93 93 0 0 1 2.668-4.873 92 92 0 0 1 2.995-4.747c-3.055.424-5.875 1.005-8.428 1.707.71 2.544 1.641 5.203 2.765 7.913m40.739 14.208C71.264 47.886 76 43.866 76 40s-4.736-7.886-12.812-10.622c-.953 3.405-2.269 6.983-3.92 10.621 1.651 3.639 2.967 7.217 3.92 10.623m-46.378-.001c.952-3.404 2.267-6.982 3.918-10.619-1.651-3.638-2.967-7.217-3.919-10.622C8.734 32.116 4 36.135 4 40c0 3.866 4.735 7.885 12.81 10.621m35.074 2.586c3.055-.424 5.875-1.004 8.428-1.707-.711-2.544-1.642-5.204-2.766-7.914a92 92 0 0 1-5.662 9.621m-23.775-.001a93 93 0 0 1-2.993-4.746 93 93 0 0 1-2.667-4.87c-1.124 2.708-2.054 5.367-2.764 7.91 2.552.701 5.371 1.281 8.424 1.706m-3.635 18.797c3.739 0 8.481-2.57 13.352-6.914-2.513-2.489-5.005-5.376-7.388-8.587-4.143-.439-8.002-1.161-11.478-2.116-1.084 4.898-1.279 9.226-.422 12.428.578 2.16 1.598 3.667 3.03 4.48.828.471 1.807.709 2.906.709m31.053-.006c1.099 0 2.076-.238 2.907-.709 1.43-.811 2.447-2.315 3.024-4.473.858-3.203.663-7.531-.421-12.428-3.477.955-7.337 1.677-11.481 2.116-2.38 3.21-4.871 6.096-7.381 8.585 4.871 4.34 9.613 6.908 13.352 6.909M40 63.04a71 71 0 0 0 5.522-6.206c-1.801.107-3.559.333-5.439.333-1.881 0-3.807-.226-5.609-.333A71 71 0 0 0 40 63.04M24.116 4.072c-1.799 0-3.085.338-4.523 1.153-2.399 1.361-4.055 3.691-4.921 6.926-.96 3.587-.877 8.302.236 13.681C5.419 29.189 0 34.325 0 40c0 5.676 5.42 10.811 14.909 14.168-1.113 5.379-1.196 10.094-.235 13.681.865 3.233 2.52 5.563 4.921 6.926 1.44.816 3.17 1.163 4.968 1.163 4.487 0 9.753-2.535 15.438-7.466 5.684 4.926 11.039 7.524 15.525 7.525 1.799 0 3.441-.413 4.881-1.229 2.397-1.359 4.051-3.686 4.916-6.917.961-3.588.878-8.303-.235-13.681C74.579 50.812 80 45.676 80 40s-5.42-10.812-14.911-14.169c1.114-5.38 1.196-10.095.235-13.682-.866-3.231-2.521-5.558-4.919-6.917-1.439-.815-3.081-1.229-4.879-1.229-4.485 0-9.839 2.599-15.524 7.527-5.686-4.932-11.066-7.461-15.554-7.461zM19.72 24.377c-.462-2.324-.772-4.502-.789-6.412-.015-1.72.221-3.217.57-4.521.507-1.892 1.368-3.194 2.559-3.87a4.9 4.9 0 0 1 2.423-.644c3.181 0 7.367 2.178 11.883 6.034-2.221 2.273-4.392 4.819-6.466 7.585-3.585.4-7.003 1.013-10.18 1.828m23.918-9.411c4.515-3.853 8.711-5.963 11.888-5.963.924 0 1.737.195 2.414.579 1.189.674 2.049 1.973 2.555 3.861.874 2.818.761 6.564-.218 10.933-3.177-.814-6.594-1.428-10.178-1.826-2.073-2.765-4.242-5.311-6.461-7.584m-6.965 7.094a69 69 0 0 1 3.328-3.678 69 69 0 0 1 3.326 3.678 93 93 0 0 0-6.654 0m-4.048 5.24c2.405-.199 4.883-.341 7.375-.341s4.969.142 7.373.341a88 88 0 0 1 4.056 6.269 86 86 0 0 1 3.423 6.43 86.6 86.6 0 0 1-7.48 12.701c-2.403.199-4.881.466-7.372.466-2.493 0-4.972-.268-7.378-.467a87 87 0 0 1-4.058-6.269A86 86 0 0 1 25.142 40a86 86 0 0 1 7.483-12.7m24.797 6.724a93 93 0 0 0-3.468-5.899c1.774.302 3.485.663 5.114 1.08a68 68 0 0 1-1.646 4.819m-36.494-4.819a64 64 0 0 1 5.114-1.08 92 92 0 0 0-1.786 2.908 94 94 0 0 0-1.683 2.99 67 67 0 0 1-1.645-4.818m39.437 10.794c1.415-3.162 2.587-6.292 3.49-9.326C70.758 33.192 75 36.721 75 40s-4.242 6.808-11.145 9.327c-.904-3.035-2.075-6.166-3.49-9.328m-44.223 9.327C9.241 46.807 5 43.278 5 40s4.241-6.807 11.141-9.326c.903 3.035 2.074 6.165 3.489 9.327-1.414 3.161-2.585 6.291-3.488 9.325m37.811 2.55a92 92 0 0 0 3.469-5.9 68 68 0 0 1 1.646 4.821 65 65 0 0 1-5.115 1.079m-33.024-1.081a68 68 0 0 1 1.644-4.816 92 92 0 0 0 3.467 5.896 65 65 0 0 1-5.111-1.08m3.545 20.208c-.924 0-1.736-.195-2.413-.579-1.19-.676-2.051-1.977-2.557-3.869-.831-2.845-.737-6.592.218-10.933 3.176.814 6.592 1.428 10.175 1.826 2.075 2.766 4.246 5.313 6.468 7.588-4.515 3.857-8.712 5.968-11.891 5.967M50.098 57.45c3.584-.399 7.001-1.012 10.178-1.826 1.105 4.74 1.192 8.518.217 10.932-.505 1.889-1.364 3.188-2.552 3.861-.678.384-1.49.579-2.413.579v1l-.001-1c-3.18 0-7.377-2.11-11.891-5.961 2.22-2.273 4.389-4.819 6.462-7.585M40 61.62a68 68 0 0 1-3.33-3.68 94 94 0 0 0 6.657 0A68 68 0 0 1 40 61.62"/>
        </symbol>
        <symbol id="Django" fill-rule="evenodd" clip-rule="evenodd" viewBox="0 0 48 48">
            <path fill="#004d40" d="M8 16v12.646C6.655 28.9 5.949 29 4.878 29 1.67 28.997 0 27.565 0 24.816c0-2.649 1.771-4.368 4.516-4.368.426 0 .75.033 1.143.134V16zm-2.341 6.672a2.7 2.7 0 0 0-.886-.134c-1.328 0-2.096.809-2.096 2.228 0 1.381.734 2.143 2.079 2.143.291 0 .527-.016.903-.067z"/>
            <path fill="#004d40" d="M12 20.046v6.618c0 2.076-.155 3.224-.612 4.084-.426.827-.987 1.349-2.146 1.925l-2.437-1.149c1.159-.539 1.721-1.015 2.079-1.742.375-.743.494-1.754.494-4.017v-5.721H12zM9.377 16H12v2.713H9.377zm4.357 4.876a7.54 7.54 0 0 1 3.408-.795c1.321 0 2.189.363 2.573 1.073.215.397.285.914.285 2.021v5.407c-1.152.171-2.606.294-3.673.294-2.156 0-3.123-.778-3.123-2.505 0-1.868 1.285-2.731 4.441-3.006v-.585c0-.483-.235-.658-.884-.658-.95 0-2.02.278-3.024.812zm4.027 4.231c-1.702.171-2.255.449-2.255 1.141 0 .518.318.761 1.02.761.384 0 .735-.034 1.235-.12zm3.657-4.414c1.52-.421 2.772-.613 4.041-.613 1.318 0 2.273.317 2.839.93.532.578.702 1.212.702 2.563v5.303h-2.574v-5.195c0-1.038-.335-1.424-1.252-1.424-.351 0-.669.035-1.186.195v6.425h-2.57zm8.759 9.313c.919.486 1.839.71 2.812.71 1.721 0 2.454-.473 2.454-2.176v-.052c-.51.258-1.025.366-1.704.366-2.302 0-3.739-1.547-3.739-3.997 0-3.043 2.141-4.762 5.974-4.762 1.126 0 2.167.121 3.427.383l-.899 1.93c-.699-.138-.057-.021-.584-.072v.279l.034 1.13.017 1.461c.017.366.017.73.034 1.096v.73c0 2.295-.19 3.131-.751 4.02-.818 1.302-2.234 1.947-4.246 1.947-1.024 0-1.91-.155-2.829-.521zm5.215-7.755h-.275c-.51-.017-1.108.121-1.518.383-.628.365-.953 1.027-.953 1.964 0 1.337.649 2.102 1.808 2.102.358 0 .649-.069.987-.172v-.923c0-.314-.017-.662-.017-1.027l-.017-1.234-.017-.886v-.207zm8.174-2.205c2.753 0 4.434 1.66 4.434 4.348 0 2.756-1.752 4.483-4.544 4.483-2.756 0-4.456-1.659-4.456-4.33.005-2.773 1.757-4.501 4.566-4.501m-.057 6.706c1.057 0 1.681-.838 1.681-2.294 0-1.439-.607-2.294-1.663-2.294-1.093 0-1.718.838-1.718 2.294.001 1.456.629 2.294 1.7 2.294"/>
        </symbol>
        <symbol xmlns:xlink="http://www.w3.org/1999/xlink" id="github" fill-rule="nonzero" viewBox="0 0 256 256">
            <g stroke-miterlimit="10" font-family="none" font-size="none" font-weight="none" text-anchor="none">
                <g fill="#243b55" fill-opacity="0" style="mix-blend-mode:normal">
                    <path id="bgRectangle" d="M0 256V0h256v256z"/>
                </g>
                <path fill="#fff" d="M17.791 46.836A2 2 0 0 0 19 45v-5.4q.002-.297.041-.61L19 39h-3.6c-1.5 0-2.8-.6-3.4-1.8-.7-1.3-1-3.5-2.8-4.7-.3-.2-.1-.5.5-.5.6.1 1.9.9 2.7 2 .9 1.1 1.8 2 3.4 2 2.487 0 3.82-.125 4.622-.555C21.356 34.056 22.649 33 24 33v-.025c-5.668-.182-9.289-2.066-10.975-4.975-3.665.042-6.856.405-8.677.707a22 22 0 0 1-.151-.987c1.797-.296 4.843-.647 8.345-.714a8 8 0 0 1-.291-.849c-3.511-.178-6.541-.039-8.187.097-.02-.332-.047-.663-.051-.999 1.649-.135 4.597-.27 8.018-.111a10 10 0 0 1-.13-1.543c0-1.7.6-3.5 1.7-5-.5-1.7-1.2-5.3.2-6.6 2.7 0 4.6 1.3 5.5 2.1C21 13.4 22.9 13 25 13s4 .4 5.6 1.1c.9-.8 2.8-2.1 5.5-2.1 1.5 1.4.7 5 .2 6.6 1.1 1.5 1.7 3.2 1.6 5 0 .484-.045.951-.11 1.409 3.499-.172 6.527-.034 8.204.102-.002.337-.033.666-.051.999-1.671-.138-4.775-.28-8.359-.089a8 8 0 0 1-.325.98c3.546.046 6.665.389 8.548.689q-.064.498-.151.987c-1.912-.306-5.171-.664-8.879-.682-1.665 2.878-5.22 4.755-10.777 4.974V33c2.6 0 5 3.9 5 6.6V45c0 .823.498 1.53 1.209 1.836C41.37 43.804 48 35.164 48 25 48 12.318 37.683 2 25 2S2 12.318 2 25c0 10.164 6.63 18.804 15.791 21.836" style="mix-blend-mode:normal" transform="scale(5.12)"/>
            </g>
        </symbol>
        <symbol id="Html5" viewBox="0 0 48 48">
            <path fill="#E65100" d="M41 5H7l3 34 14 4 14-4z"/>
            <path fill="#FF6D00" d="M24 8v31.9l11.2-3.2L37.7 8z"/>
            <path fill="#FFF" d="M24 25v-4h8.6l-.7 11.5-7.9 2.6v-4.2l4.1-1.4.3-4.5zm8.9-8 .3-4H24v4z"/>
            <path fill="#EEE" d="M24 30.9v4.2l-7.9-2.6-.4-5.5h4l.2 2.5zM19.1 17H24v-4h-9.1l.7 12H24v-4h-4.6z"/>
        </symbol>
        <symbol id="Javascript" viewBox="0 0 48 48">
            <path fill="#ffd600" d="M6 42V6h36v36z"/>
            <path fill="#000001" d="M29.538 32.947c.692 1.124 1.444 2.201 3.037 2.201 1.338 0 2.04-.665 2.04-1.585 0-1.101-.726-1.492-2.198-2.133l-.807-.344c-2.329-.988-3.878-2.226-3.878-4.841 0-2.41 1.845-4.244 4.728-4.244 2.053 0 3.528.711 4.592 2.573l-2.514 1.607c-.553-.988-1.151-1.377-2.078-1.377-.946 0-1.545.597-1.545 1.377 0 .964.6 1.354 1.985 1.951l.807.344C36.452 29.645 38 30.839 38 33.523 38 36.415 35.716 38 32.65 38c-2.999 0-4.702-1.505-5.65-3.368zm-11.586.082c.506.906 1.275 1.603 2.381 1.603 1.058 0 1.667-.418 1.667-2.043V22h3.333v11.101c0 3.367-1.953 4.899-4.805 4.899-2.577 0-4.437-1.746-5.195-3.368z"/>
        </symbol>
        <symbol id="NextJs" viewBox="0 0 48 48">
            <path fill="#212121" d="M18.974 31.5a1.5 1.5 0 1 1-3 0v-14a1.499 1.499 0 0 1 2.724-.867l16.777 23.704C40.617 36.709 44 30.735 44 24c0-11-9-20-20-20S4 13 4 24s9 20 20 20c3.192 0 6.206-.777 8.89-2.122L18.974 22.216zm10-15a1.5 1.5 0 1 1 3 0v13.84l-3-4.227z"/>
        </symbol>
        <symbol id="NodeJs" viewBox="0 0 48 48">
            <path fill="#388e3c" d="m17.204 19.122-4.907 2.715a.56.56 0 0 0-.297.492v5.433c0 .203.113.39.297.492l4.908 2.717c.183.101.41.101.593 0l4.907-2.717a.57.57 0 0 0 .295-.492v-5.433a.56.56 0 0 0-.297-.492l-4.906-2.715a.61.61 0 0 0-.594 0m25.248 4.891-.818.452a.09.09 0 0 0-.049.082v.906c0 .034.019.065.049.082l.818.453a.1.1 0 0 0 .099 0l.818-.453a.1.1 0 0 0 .049-.082v-.906a.1.1 0 0 0-.05-.082l-.818-.452Q42.526 24 42.5 24a.1.1 0 0 0-.049.013"/>
            <path fill="#37474f" d="m35.751 13.364-2.389-1.333a.243.243 0 0 0-.361.212L33 20.295l-2.203-1.219a.61.61 0 0 0-.594 0h.001l-4.907 2.715a.56.56 0 0 0-.297.491v5.433c0 .203.113.39.297.492l4.908 2.717c.183.101.41.101.593 0l4.907-2.717a.56.56 0 0 0 .295-.492V13.788a.49.49 0 0 0-.249-.424m-2.885 13.094-2.23 1.235a.28.28 0 0 1-.269 0l-2.231-1.235a.26.26 0 0 1-.136-.224v-2.47c0-.092.051-.177.135-.224l2.231-1.234h-.001a.29.29 0 0 1 .27 0l2.23 1.234a.26.26 0 0 1 .135.225v2.47a.26.26 0 0 1-.134.223"/>
            <path fill="#2e7d32" d="M17.204 19.122 12 27.762c0 .203.113.39.297.492l4.908 2.717c.183.101.41.101.593 0L23 22.329a.56.56 0 0 0-.297-.492l-4.906-2.715a.61.61 0 0 0-.594 0"/>
            <path fill="#4caf50" d="m17.204 19.122-4.907 2.715a.56.56 0 0 0-.297.492l5.204 8.642c.183.101.41.101.593 0l4.907-2.717a.56.56 0 0 0 .296-.492l-5.203-8.64a.61.61 0 0 0-.594 0"/>
            <path fill="#37474f" d="m47.703 21.791-4.906-2.715a.61.61 0 0 0-.594 0h.001l-4.907 2.715a.57.57 0 0 0-.297.503v5.411c0 .209.114.402.297.503l4.908 2.717a.61.61 0 0 0 .593 0l2.263-1.253a.3.3 0 0 0-.002-.526l-4.924-2.687a.26.26 0 0 1-.135-.228v-2.466c0-.092.05-.177.13-.221l2.235-1.236h-.001a.29.29 0 0 1 .27 0l2.235 1.237c.08.044.13.129.13.221v2.012a.241.241 0 0 0 .363.208l2.398-1.393a.48.48 0 0 0 .24-.417v-1.88a.58.58 0 0 0-.297-.505m-37 0-4.906-2.715a.61.61 0 0 0-.594 0h.001L.297 21.791a.57.57 0 0 0-.297.503v7.465a.241.241 0 0 0 .363.208l2.398-1.393A.48.48 0 0 0 3 28.157v-4.393c0-.092.05-.177.13-.221l2.235-1.236a.29.29 0 0 1 .27 0l2.235 1.237c.08.044.13.129.13.221v4.393a.48.48 0 0 0 .24.417l2.398 1.393a.25.25 0 0 0 .242.001.25.25 0 0 0 .12-.21v-7.464a.58.58 0 0 0-.297-.504"/>
        </symbol>
        <symbol id="Python" viewBox="0 0 48 48">
            <path fill="#0277BD" d="M24.047 5c-1.555.005-2.633.142-3.936.367-3.848.67-4.549 2.077-4.549 4.67V14h9v2H10.87c-2.636 0-4.943 1.242-5.674 4.219-.826 3.417-.863 5.557 0 9.125C5.851 32.005 7.294 34 9.931 34h3.632v-5.104c0-2.966 2.686-5.896 5.764-5.896h7.236c2.523 0 5-1.862 5-4.377v-8.586c0-2.439-1.759-4.263-4.218-4.672.061-.006-1.756-.371-3.298-.365m-4.984 4c.821 0 1.5.677 1.5 1.502a1.5 1.5 0 0 1-1.5 1.498 1.49 1.49 0 0 1-1.5-1.498A1.5 1.5 0 0 1 19.063 9"/>
            <path fill="#FFC107" d="M23.078 43c1.555-.005 2.633-.142 3.936-.367 3.848-.67 4.549-2.077 4.549-4.67V34h-9v-2h13.693c2.636 0 4.943-1.242 5.674-4.219.826-3.417.863-5.557 0-9.125C41.274 15.995 39.831 14 37.194 14h-3.632v5.104c0 2.966-2.686 5.896-5.764 5.896h-7.236c-2.523 0-5 1.862-5 4.377v8.586c0 2.439 1.759 4.263 4.218 4.672-.061.006 1.756.371 3.298.365m4.985-4c-.821 0-1.5-.677-1.5-1.502a1.5 1.5 0 0 1 1.5-1.498c.837 0 1.5.664 1.5 1.498 0 .822-.664 1.502-1.5 1.502"/>
        </symbol>
        <symbol xmlns="http://www.w3.org/2000/svg" xmlns:xlink="http://www.w3.org/1999/xlink" id="React Router" preserveAspectRatio="xMidYMid" viewBox="0 -58 256 256">
            <path d="M78.066 92.588c12.818 0 23.209-10.391 23.209-23.21 0-12.817-10.391-23.208-23.21-23.208-12.817 0-23.208 10.39-23.208 23.209s10.391 23.209 23.209 23.209m-54.857 46.417c12.818 0 23.209-10.39 23.209-23.209 0-12.817-10.391-23.208-23.21-23.208C10.392 92.588 0 102.978 0 115.796s10.39 23.21 23.209 23.21m209.582 0c12.818 0 23.209-10.39 23.209-23.209 0-12.817-10.39-23.208-23.209-23.208s-23.209 10.39-23.209 23.208 10.391 23.21 23.21 23.21"/>
            <path fill="#D0021B" d="M156.565 70.357c-.742-7.754-1.12-14.208-7.06-18.744-7.522-5.744-16.044-2.017-26.54-5.806C112.65 43.312 105 34.155 105 23.24 105 10.405 115.578 0 128.626 0c9.665 0 17.974 5.707 21.634 13.883 5.601 10.64 1.96 21.467 8.998 26.921 8.333 6.458 19.568 1.729 32.104 7.848a23.6 23.6 0 0 1 9.84 8.425A22.86 22.86 0 0 1 205 69.718c0 10.915-7.65 20.073-17.964 22.568-10.497 3.789-19.019.062-26.541 5.806-8.46 6.46-3.931 17.267-10.826 28.682-3.913 7.518-11.867 12.663-21.043 12.663-13.048 0-23.626-10.405-23.626-23.24 0-9.323 5.582-17.364 13.638-21.066 12.536-6.12 23.77-1.39 32.104-7.848 4.807-3.726 5.823-9.473 5.823-16.926"/>
        </symbol>
        <symbol id="Redux" viewBox="0 0 48 48">
            <path fill="#7e57c2" d="M23 4c-6.617 0-12 7.27-12 16.205 0 4.834 1.582 9.169 4.078 12.136A3 3 0 0 0 15 33a3 3 0 1 0 3-3 3 3 0 0 0-.897.152C15.206 27.731 14 24.175 14 20.205 14 12.924 18.037 7 23 7c3.837 0 7.111 3.547 8.404 8.518 1.122.346 2.237.782 3.33 1.308C33.579 9.508 28.759 4 23 4"/>
            <path fill="#7e57c2" d="M35.507 20.084c-3.947-2.392-8.374-3.442-12.182-2.959A2.98 2.98 0 0 0 21 16a3 3 0 1 0 0 6 2.995 2.995 0 0 0 2.789-1.912c3.118-.379 6.812.531 10.163 2.563 6.403 3.881 9.67 10.569 7.282 14.911-.827 1.504-2.286 2.572-4.218 3.09-2.286.611-5.007.394-7.727-.528a24.5 24.5 0 0 1-2.725 2.168c2.552 1.117 5.196 1.704 7.669 1.704 1.24 0 2.438-.147 3.559-.447 2.741-.733 4.841-2.304 6.071-4.542 3.153-5.731-.596-14.22-8.356-18.923"/>
            <path fill="#7e57c2" d="M35 28.992C35 27.34 33.657 26 32 26s-3 1.34-3 2.992c0 .669.228 1.281.6 1.779-1.279 2.802-3.744 5.567-7.062 7.578-3.865 2.344-8.185 3.202-11.555 2.302-1.932-.518-3.391-1.586-4.218-3.09-1.702-3.094-.521-7.376 2.61-10.988a23 23 0 0 1-.706-3.575c-5.07 4.797-7.109 11.323-4.532 16.009 1.23 2.238 3.33 3.809 6.071 4.542 1.121.3 2.318.447 3.559.447 3.346 0 7.007-1.068 10.326-3.08 3.836-2.325 6.683-5.577 8.209-8.962C33.815 31.801 35 30.541 35 28.992"/>
        </symbol>
        <symbol id="Sass" viewBox="0 0 48 48">
            <path fill="#f06292" d="M39.867 25.956a9 9 0 0 0-3.986.928c-.408-.815-.822-1.532-.891-2.065-.081-.622-.175-.994-.077-1.735s.527-1.791.521-1.87-.096-.456-.983-.463c-.887-.006-1.646.171-1.735.405s-.26.761-.366 1.311c-.155.804-1.771 3.673-2.688 5.173-.3-.586-.555-1.102-.608-1.51-.081-.622-.175-.994-.077-1.735s.527-1.791.521-1.87-.096-.456-.983-.463c-.887-.006-1.646.171-1.735.405s-.185.781-.366 1.311c-.182.529-2.329 5.314-2.892 6.555-.287.632-.536 1.14-.712 1.486l-.001-.002-.029.062c-.151.295-.24.458-.24.458l.003.006c-.12.217-.248.418-.311.418-.044 0-.133-.577.019-1.369.32-1.66 1.087-4.248 1.08-4.338-.004-.046.143-.497-.501-.733-.626-.229-.849.153-.906.154-.055.001-.096.135-.096.135s.697-2.911-1.33-2.911c-1.268 0-3.024 1.387-3.889 2.644-.546.298-1.715.936-2.954 1.617l-1.423.783-.095-.104c-2.459-2.623-7.003-4.478-6.811-8.005.07-1.282.516-4.658 8.733-8.752 6.731-3.354 12.12-2.431 13.051-.386 1.33 2.923-2.88 8.354-9.87 9.138-2.663.299-4.066-.734-4.415-1.118-.367-.405-.422-.423-.559-.347-.223.124-.082.481 0 .694.209.543 1.065 1.506 2.525 1.986 1.285.422 4.412.653 8.193-.81 4.236-1.638 7.543-6.196 6.571-10.005-.988-3.874-7.412-5.148-13.492-2.988-3.623 1.286-7.54 3.304-10.357 5.938-3.349 3.132-3.883 5.859-3.663 6.998.782 4.048 6.361 6.684 8.595 8.637l-.308.17c-1.12.554-5.373 2.78-6.437 5.131-1.207 2.667.192 4.581 1.118 4.839 2.869.798 5.813-.638 7.396-2.998 1.582-2.359 1.389-5.432.663-6.834l-.028-.052.876-.517c.57-.335 1.13-.647 1.615-.911-.272.744-.471 1.637-.574 2.926-.122 1.514.499 3.471 1.311 4.241.358.339.788.347 1.06.347.945 0 1.376-.786 1.851-1.716.582-1.14 1.099-2.468 1.099-2.468s-.648 3.586 1.118 3.586c.644 0 1.291-.835 1.58-1.26l.001.007.05-.083c.067-.102.105-.167.105-.167l.003-.019a71 71 0 0 0 1.693-3.162c1.112-2.182 2.178-4.916 2.178-4.916s.099.668.424 1.774c.191.65.597 1.369.918 2.059-.258.358-.416.563-.416.563l.004.011c-.206.274-.437.569-.679.857-.878 1.045-1.923 2.239-2.063 2.583-.165.406-.126.704.193.945.233.175.647.203 1.08.174a4.9 4.9 0 0 0 1.617-.368 5.4 5.4 0 0 0 1.39-.731c.861-.633 1.38-1.538 1.33-2.738-.028-.661-.238-1.316-.505-1.934l.235-.34c1.357-1.984 2.41-4.164 2.41-4.164s.099.668.424 1.774c.164.559.489 1.17.781 1.768-1.276 1.037-2.067 2.242-2.342 3.032-.508 1.462-.11 2.124.636 2.275.338.068.816-.087 1.175-.239a5.4 5.4 0 0 0 1.486-.764c.861-.633 1.689-1.519 1.639-2.718-.023-.546-.171-1.088-.372-1.608 1.082-.451 2.482-.701 4.266-.493 3.827.447 4.577 2.836 4.434 3.836-.144 1-.946 1.55-1.215 1.716-.268.166-.35.224-.328.347.033.179.157.173.386.134.315-.053 2.009-.813 2.082-2.659.091-2.346-2.154-4.92-6.131-4.899M10.37 35.9c-1.268 1.383-3.038 1.905-3.798 1.465-.82-.475-.495-2.511 1.06-3.979.948-.894 2.172-1.718 2.984-2.225l.786-.472.086-.048-.001-.002.196-.118c.567 2.089.018 3.928-1.313 5.379m9.235-6.277c-.441 1.076-1.365 3.83-1.928 3.682-.483-.127-.777-2.22-.096-4.28.342-1.037 1.074-2.276 1.504-2.757.692-.774 1.454-1.027 1.639-.713.235.4-.842 3.393-1.119 4.068m7.629 3.64c-.187.098-.359.159-.438.112-.059-.035.077-.164.077-.164s.954-1.027 1.33-1.494c.219-.272.472-.595.748-.955l.003.107c-.002 1.23-1.19 2.06-1.72 2.394m5.877-1.34c-.14-.099-.116-.42.343-1.421.18-.393.592-1.054 1.306-1.686.083.26.133.509.132.741-.009 1.548-1.113 2.126-1.781 2.366"/>
        </symbol>
        <symbol id="Tailwindcss" viewBox="0 0 48 48">
            <path fill="#00acc1" d="M24 9.604q-9.6 0-12 9.597 3.6-4.798 8.4-3.599c1.826.456 3.131 1.781 4.576 3.247C27.328 21.236 30.051 24 36 24q9.6 0 12-9.598-3.6 4.798-8.4 3.6c-1.825-.456-3.13-1.781-4.575-3.247C32.672 12.367 29.948 9.604 24 9.604M12 24q-9.6 0-12 9.598 3.6-4.799 8.4-3.599c1.825.457 3.13 1.781 4.575 3.246 2.353 2.388 5.077 5.152 11.025 5.152q9.6 0 12-9.598-3.6 4.799-8.4 3.599c-1.826-.456-3.131-1.781-4.576-3.246C20.672 26.764 17.949 24 12 24"/>
        </symbol>
        <symbol id="Typescript" viewBox="0 0 48 48">
            <path fill="#1976d2" d="M6 6h36v36H6z"/>
            <path fill="#fff" d="M27.49 22H14.227v3.264h4.757V40h3.769V25.264h4.737zm11.704 4.084s-1.787-1.192-3.807-1.192-2.747.96-2.747 1.986c0 2.648 7.381 2.383 7.381 7.712 0 8.209-11.254 4.568-11.254 4.568V35.22s2.152 1.622 4.733 1.622 2.483-1.688 2.483-1.92c0-2.449-7.315-2.449-7.315-7.878 0-7.381 10.658-4.469 10.658-4.469z"/>
        </symbol>
    </defs>
</svg>
